<?xml version="1.0" encoding="utf-8"?>
<!-- Generator: Adobe Illustrator 24.3.0, SVG Export Plug-In . SVG Version: 6.00 Build 0)  -->
<svg version="1.1" id="Capa_1" xmlns="http://www.w3.org/2000/svg" xmlns:xlink="http://www.w3.org/1999/xlink" x="0px" y="0px"
	 viewBox="0 0 26 26" style="enable-background:new 0 0 26 26;" xml:space="preserve">
<style type="text/css">
	.st0{fill:#FFFFFF;}
</style>
<g>
	<path class="st0" d="M7.2,4.7v16.5h8.7l0,0v-2.7h2.9V4.7H7.2z M14.5,18.1c0,0.2-0.1,0.3-0.3,0.3H11c-0.2,0-0.3-0.1-0.3-0.3v-3.2
		c0-0.2,0.1-0.3,0.3-0.3h3.2c0.2,0,0.3,0.1,0.3,0.3V18.1z M11.3,10v2.6h2.6v-0.3c0,0,0,0,0.1,0l0.5-0.5v1.1c0,0.2-0.1,0.3-0.3,0.3
		H11c-0.2,0-0.3-0.1-0.3-0.3V9.7c0-0.2,0.1-0.3,0.3-0.3h3.2c0.2,0,0.3,0.1,0.3,0.3v0l-0.6,0.6V10H11.3z M15.6,10.2l-1.9,1.9
		c-0.1,0.1-0.2,0.1-0.3,0.1c-0.1,0-0.2,0-0.3-0.1l-0.9-0.9c-0.2-0.2-0.2-0.4,0-0.6s0.4-0.2,0.6,0l0.6,0.6L15,9.6
		c0.2-0.2,0.4-0.2,0.6,0C15.8,9.7,15.8,10,15.6,10.2z M17.2,7.4H8.8V6.5h8.3V7.4z"/>
	<path class="st0" d="M13,0.8C6.3,0.8,0.8,6.3,0.8,13S6.3,25.2,13,25.2S25.2,19.7,25.2,13S19.7,0.8,13,0.8z M20.1,18.9
		c0,0.2-0.1,0.3-0.2,0.5l-3.3,3c-0.1,0.1-0.3,0.2-0.4,0.2H6.5c-0.3,0-0.6-0.3-0.6-0.6V4.1c0-0.3,0.3-0.6,0.6-0.6h12.9
		c0.3,0,0.6,0.3,0.6,0.6V18.9z"/>
	<rect x="11.3" y="15.2" class="st0" width="2.5" height="2.5"/>
</g>
</svg>
