<?xml version="1.0" encoding="utf-8"?>
<!-- Generator: Adobe Illustrator 24.3.0, SVG Export Plug-In . SVG Version: 6.00 Build 0)  -->
<svg version="1.1" id="Layer_1" xmlns="http://www.w3.org/2000/svg" xmlns:xlink="http://www.w3.org/1999/xlink" x="0px" y="0px"
	 viewBox="0 0 512 512" style="enable-background:new 0 0 512 512;" xml:space="preserve">
<style type="text/css">
	.st0{fill:#FFFFFF;}
</style>
<path class="st0" d="M270.5,334.9c0-13.3-16.2-23.7-37-23.7s-37,10.4-37,23.7s16.2,23.7,37,23.7S270.5,348.2,270.5,334.9z
	 M206.8,334.9c0-6.3,10.9-13.4,26.7-13.4s26.7,7.1,26.7,13.4s-11,13.4-26.7,13.4S206.8,341.2,206.8,334.9L206.8,334.9z"/>
<path class="st0" d="M363.4,326.5c13.3-9.4,21.3-24.7,21.3-41.1V260c0-25.8-20.9-46.7-46.7-46.8h-49.8c-2.8,0-5.1,2.3-5.1,5.1
	c0,0,0,0,0,0v46.9H161.1c-8.8,0-16,7.2-16,16v107.1c0,8.8,7.2,16,16,16h48.9v32.3h-35.4c-2.8,0.1-5.1,2.5-4.9,5.4
	c0.1,2.7,2.3,4.8,4.9,4.9h202.7c14.7,0,26.7-12,26.7-26.7v-43.9C404,352.2,387.1,331.4,363.4,326.5z M338,223.5
	c18.2,0.1,33.5,13.5,36,31.5c-14.2-0.3-17.7-7.2-17.8-7.4c-1.1-2.6-4.1-3.9-6.7-2.8c-0.8,0.3-1.5,0.8-2,1.5
	c-6.3,7.7-34,6.8-54.1,3.5v-26.3H338z M293.4,260.2c13.9,2.1,43,5.3,57.3-3.4c3.9,3.8,11.1,8.3,23.8,8.4v20.1c0,22.1-17.9,40-40,40
	h-0.9c-3.9,0-7.8-0.7-11.5-2.1v-7.8c13.8-2.4,16.8-12.4,16.9-12.9c0.8-2.7-0.8-5.4-3.4-6.2c-2.7-0.8-5.5,0.6-6.4,3.3
	c-0.2,0.5-1.5,3.8-7,5.3v-23.7c0-8.8-7.2-16-16-16h-12.6L293.4,260.2z M155.4,388.4V281.3c0-3.2,2.6-5.7,5.7-5.7h144.8
	c3.2,0,5.7,2.6,5.7,5.7l0,0v107.1c0,3.2-2.6,5.7-5.7,5.7l0,0H161.1C158,394.1,155.4,391.6,155.4,388.4L155.4,388.4z M220.4,404.4
	h26.3v32.3h-26.3L220.4,404.4z M377.4,436.7h-66.2c2.5-12.4,13.4-21.3,26-21.3h29.6c2.8,0,5.1-2.3,5.1-5.1v-10.4h21.8v20.5
	C393.8,429.4,386.4,436.7,377.4,436.7L377.4,436.7z M393.8,389.5h-21.9V364c0-2.8-2.3-5.2-5.1-5.2c-2.8,0-5.2,2.3-5.2,5.1
	c0,0,0,0,0,0v41h-24.4c-18.3,0-33.8,13.5-36.4,31.6H257v-32.2h48.9c8.8,0,16-7.2,16-16v-52.7h31.2c22.4,0,40.6,18.2,40.6,40.6
	L393.8,389.5z"/>
<path class="st0" d="M333.9,284.4c2.8,0,5.1-2.3,5.1-5.1c0,0,0,0,0,0v-4.7c0-2.8-2.3-5.1-5.2-5.1c-2.8,0-5.1,2.3-5.1,5.1v4.7
	C328.7,282.1,331,284.4,333.9,284.4C333.8,284.4,333.9,284.4,333.9,284.4z"/>
<path class="st0" d="M454.5,220.2L371.9,155V80.9c0-2.8-2.3-5.2-5.1-5.2h-48c-2.8,0-5.1,2.3-5.1,5.1c0,0,0,0,0,0V109l-54.4-42.9
	c-1.9-1.5-4.5-1.5-6.4,0L57.5,220.2c-2.2,1.8-2.6,5-0.8,7.2c1,1.2,2.5,1.9,4,2h43.6v207.1c0.1,2.8,2.5,5.1,5.4,4.9
	c2.7-0.1,4.8-2.3,4.9-4.9V224.2c0-2.8-2.3-5.2-5.2-5.2H75.6L256,76.7l59.5,47c2.2,1.8,5.5,1.4,7.2-0.9c0.7-0.9,1.1-2,1.1-3.1V86
	h37.7v71.5c0,1.6,0.7,3.1,2,4.1l72.9,57.5h-34c-2.8-0.1-5.3,2.1-5.4,4.9c-0.1,2.8,2.1,5.3,4.9,5.4c0.2,0,0.3,0,0.5,0h48.8
	c2.8,0,5.2-2.3,5.1-5.2C456.4,222.6,455.7,221.1,454.5,220.2L454.5,220.2z"/>
</svg>
