<?xml version="1.0" encoding="utf-8"?>
<!-- Generator: Adobe Illustrator 24.3.0, SVG Export Plug-In . SVG Version: 6.00 Build 0)  -->
<svg version="1.1" id="Layer_2_1_" xmlns="http://www.w3.org/2000/svg" xmlns:xlink="http://www.w3.org/1999/xlink" x="0px" y="0px"
	 viewBox="0 0 1000 1000" style="enable-background:new 0 0 1000 1000;" xml:space="preserve">
<style type="text/css">
	.st0{fill:#9C9C9C;}
</style>
<g>
	<path class="st0" d="M43.3,643.7c0,21.8,17.6,39.4,39.4,39.4H370v8.6c0,11.3,4.8,22,13.2,29.5c15.3,13.6,38.4,41,39.3,83.1
		c0.3,12.4,0.2,23-0.2,32.2h155.3c-0.3-9.1-0.4-19.8-0.2-32.2c0.9-42.1,24-69.6,39.3-83.1c8.4-7.5,13.2-18.2,13.2-29.5v-8.6h287.3
		c21.8,0,39.4-17.6,39.4-39.4V611H43.3V643.7z"/>
	<path class="st0" d="M679.6,869.3H320.4c-39.4,0-71.3,31.9-71.3,71.3l0,0c0,9.1,7.3,16.4,16.4,16.4h469c9.1,0,16.4-7.3,16.4-16.4
		l0,0C750.9,901.2,719,869.3,679.6,869.3z"/>
	<rect x="682.9" y="217.8" class="st0" width="177.4" height="87.6"/>
	<rect x="411.3" y="217.8" class="st0" width="177.4" height="87.6"/>
	<rect x="139.6" y="217.8" class="st0" width="177.4" height="87.6"/>
	<path class="st0" d="M917.3,43H82.7C61,43,43.3,60.6,43.3,82.4v495.8h913.3V82.4C956.7,60.6,939,43,917.3,43z M845.8,97.9h31
		c9.1,0,16.4,7.3,16.4,16.4s-7.3,16.4-16.4,16.4h-31c-9.1,0-16.4-7.3-16.4-16.4S836.8,97.9,845.8,97.9z M496.1,97.9h31
		c9.1,0,16.4,7.3,16.4,16.4s-7.3,16.4-16.4,16.4h-31c-9.1,0-16.4-7.3-16.4-16.4C479.7,105.2,487.1,97.9,496.1,97.9z M402.9,97.9h31
		c9.1,0,16.4,7.3,16.4,16.4s-7.3,16.4-16.4,16.4h-31c-9.1,0-16.4-7.3-16.4-16.4S393.8,97.9,402.9,97.9z M378.5,200.7
		c0-8.7,7.1-15.8,15.8-15.8h211.6c8.7,0,15.8,7.1,15.8,15.8v121.8c0,8.7-7.1,15.8-15.8,15.8H394.2c-8.7,0-15.8-7.1-15.8-15.8V200.7z
		 M216.4,97.9h31c9.1,0,16.4,7.3,16.4,16.4s-7.3,16.4-16.4,16.4h-31c-9.1,0-16.4-7.3-16.4-16.4S207.4,97.9,216.4,97.9z M123.2,97.9
		h31c9.1,0,16.4,7.3,16.4,16.4s-7.3,16.4-16.4,16.4h-31c-9.1,0-16.4-7.3-16.4-16.4C106.8,105.2,114.1,97.9,123.2,97.9z M349.9,506.9
		c0,9.1-7.3,16.4-16.4,16.4H123.2c-9.1,0-16.4-7.3-16.4-16.4v-53.8c0-9.1,7.3-16.4,16.4-16.4h210.3c9.1,0,16.4,7.3,16.4,16.4V506.9z
		 M333.5,403.9H123.2c-9.1,0-16.4-7.3-16.4-16.4c0-9.1,7.3-16.4,16.4-16.4h210.3c9.1,0,16.4,7.3,16.4,16.4
		C349.9,396.5,342.5,403.9,333.5,403.9z M349.9,322.5c0,8.7-7.1,15.8-15.8,15.8H122.5c-8.7,0-15.8-7.1-15.8-15.8V200.7
		c0-8.7,7.1-15.8,15.8-15.8h211.6c8.7,0,15.8,7.1,15.8,15.8V322.5z M340.6,130.7h-31c-9.1,0-16.4-7.3-16.4-16.4s7.3-16.4,16.4-16.4
		h31c9.1,0,16.4,7.3,16.4,16.4C357.1,123.4,349.7,130.7,340.6,130.7z M621.5,506.9c0,9.1-7.3,16.4-16.4,16.4H394.9
		c-9.1,0-16.4-7.3-16.4-16.4v-53.8c0-9.1,7.3-16.4,16.4-16.4h210.3c9.1,0,16.4,7.3,16.4,16.4V506.9z M605.1,403.9H394.9
		c-9.1,0-16.4-7.3-16.4-16.4c0-9.1,7.3-16.4,16.4-16.4h210.3c9.1,0,16.4,7.3,16.4,16.4C621.5,396.5,614.2,403.9,605.1,403.9z
		 M893.2,506.9c0,9.1-7.3,16.4-16.4,16.4H666.5c-9.1,0-16.4-7.3-16.4-16.4v-53.8c0-9.1,7.3-16.4,16.4-16.4h210.3
		c9.1,0,16.4,7.3,16.4,16.4L893.2,506.9L893.2,506.9z M876.8,403.9H666.5c-9.1,0-16.4-7.3-16.4-16.4c0-9.1,7.3-16.4,16.4-16.4h210.3
		c9.1,0,16.4,7.3,16.4,16.4C893.2,396.5,885.9,403.9,876.8,403.9z M893.2,322.5c0,8.7-7.1,15.8-15.8,15.8H665.9
		c-8.7,0-15.8-7.1-15.8-15.8V200.7c0-8.7,7.1-15.8,15.8-15.8h211.6c8.7,0,15.8,7.1,15.8,15.8V322.5z"/>
</g>
</svg>
