<?xml version="1.0" encoding="utf-8"?>
<!-- Generator: Adobe Illustrator 24.3.0, SVG Export Plug-In . SVG Version: 6.00 Build 0)  -->
<svg version="1.1" id="Capa_1" xmlns="http://www.w3.org/2000/svg" xmlns:xlink="http://www.w3.org/1999/xlink" x="0px" y="0px"
	 viewBox="0 0 419.9 419.9" style="enable-background:new 0 0 419.9 419.9;" xml:space="preserve">
<style type="text/css">
	.st0{fill:#9C9C9C;}
</style>
<g>
	<g>
		<g>
			<path class="st0" d="M282.9,352.4c-2.2-1.3-4.1-3.1-5.6-5.2c-0.7-1-1.3-2-1.8-3.1H28.3V100.3h335.6v159.1
				c7.2,0.6,13.2,5.4,15.7,11.8c2.2-1.2,4.7-2,7.3-2.2c1.8-0.2,3.5,0,5.2,0.3V39.6c0-13-10.6-23.6-23.6-23.6H23.6
				C10.6,16,0,26.6,0,39.6v309.1c0,13,10.6,23.6,23.6,23.6h257.2c-2-4.1-2.5-8.7-1.3-13.1C280.1,356.7,281.3,354.4,282.9,352.4z
				 M338,55.6c0-4.8,3.9-8.7,8.7-8.7h8.7c4.8,0,8.7,3.9,8.7,8.7v9.9c0,4.8-3.9,8.7-8.7,8.7h-8.7c-4.8,0-8.7-3.9-8.7-8.7V55.6z
				 M297.6,55.6c0-4.8,3.9-8.7,8.7-8.7h8.7c4.8,0,8.7,3.9,8.7,8.7v9.9c0,4.8-3.9,8.7-8.7,8.7h-8.7c-4.8,0-8.7-3.9-8.7-8.7V55.6z
				 M257.1,55.6c0-4.8,3.9-8.7,8.7-8.7h8.7c4.8,0,8.7,3.9,8.7,8.7v9.9c0,4.8-3.9,8.7-8.7,8.7h-8.7c-4.8,0-8.7-3.9-8.7-8.7V55.6z"/>
			<path class="st0" d="M419.9,335.8l-2.6-14.8c-0.4-2-2.3-3.3-4.3-3l-13.2,2.3c-1.6-3.7-3.6-7.2-6-10.4l8.6-10.3
				c0.6-0.7,0.9-1.7,0.8-2.7s-0.6-1.9-1.3-2.5l-11.5-9.7c-0.7-0.6-1.7-0.9-2.7-0.8s-1.9,0.6-2.5,1.3l-8.6,10.3
				c-3.5-1.8-7.3-3.2-11.3-4.1V278c0-2-1.6-3.7-3.7-3.7h-15.1c-2,0-3.7,1.6-3.7,3.7v13.4c-4,0.9-7.7,2.3-11.3,4.1l-8.6-10.3
				c-1.3-1.6-3.6-1.8-5.2-0.5l-11.5,9.7c-0.7,0.6-1.2,1.5-1.3,2.5c-0.1,1,0.2,1.9,0.8,2.7l8.6,10.3c-2.4,3.2-4.4,6.7-6,10.4
				l-13.2-2.3c-2-0.4-3.9,1-4.3,3l-2.6,14.8c-0.2,1,0,1.9,0.6,2.7c0.6,0.8,1.4,1.3,2.4,1.5l13.2,2.3c0.2,4.1,0.9,8,2.1,11.8
				l-11.6,6.7c-0.8,0.5-1.5,1.3-1.7,2.2c-0.3,0.9-0.1,1.9,0.4,2.8l7.5,13c0.5,0.8,1.3,1.5,2.2,1.7c0.3,0.1,0.6,0.1,1,0.1
				c0.6,0,1.3-0.2,1.8-0.5l11.6-6.7c2.7,2.9,5.8,5.5,9.2,7.7l-4.6,12.6c-0.3,0.9-0.3,1.9,0.1,2.8s1.2,1.6,2.1,1.9l14.1,5.1
				c0.4,0.1,0.8,0.2,1.3,0.2s1.1-0.1,1.6-0.3c0.9-0.4,1.6-1.2,1.9-2.1l4.6-12.6c2,0.2,4,0.4,6,0.4s4-0.1,6-0.4l4.6,12.6
				c0.3,0.9,1,1.7,1.9,2.1c0.5,0.2,1,0.3,1.6,0.3c0.4,0,0.9-0.1,1.3-0.2l14.1-5.1c0.9-0.3,1.7-1,2.1-1.9s0.5-1.9,0.1-2.8l-4.6-12.6
				c3.4-2.2,6.4-4.8,9.2-7.7l11.6,6.7c0.6,0.3,1.2,0.5,1.8,0.5c0.3,0,0.6,0,1-0.1c0.9-0.3,1.7-0.9,2.2-1.7l7.5-13
				c0.5-0.8,0.6-1.8,0.4-2.8c-0.3-0.9-0.9-1.7-1.7-2.2l-11.6-6.7c1.1-3.8,1.9-7.7,2.1-11.8l13.2-2.3c1-0.2,1.8-0.7,2.4-1.5
				C419.8,337.7,420,336.7,419.9,335.8z M354.2,359.3c-11.2,0-20.2-9-20.2-20.2s9-20.2,20.2-20.2s20.2,9,20.2,20.2
				S365.3,359.3,354.2,359.3z"/>
			<g>
				<path class="st0" d="M164.7,235.4c0-4.8-2.8-9.1-7.1-11.1L118.1,206l39.5-18.3c4.3-2,7.1-6.4,7.1-11.1v-0.3
					c0-4.2-2.1-8.1-5.7-10.3c-2-1.3-4.2-1.9-6.6-1.9c-1.8,0-3.6,0.4-5.2,1.1l-63.1,29.3c-4.3,2-7.1,6.4-7.1,11.1v0.9
					c0,4.7,2.8,9.1,7.1,11.1l63.1,29.3c1.6,0.8,3.4,1.1,5.2,1.1c2.3,0,4.6-0.7,6.6-1.9c3.5-2.3,5.7-6.1,5.7-10.3V235.4L164.7,235.4z
					"/>
				<path class="st0" d="M226.9,134c-2.3-3.1-6-5-9.9-5h-0.3c-5.4,0-10,3.4-11.7,8.5l-41.6,128.8c-1.2,3.7-0.5,7.8,1.8,11
					c2.3,3.1,6,5,9.9,5h0.3c5.4,0,10-3.4,11.7-8.5L228.7,145C229.9,141.3,229.2,137.2,226.9,134z"/>
				<path class="st0" d="M308,194.4L244.9,165c-1.6-0.7-3.4-1.1-5.2-1.1c-2.4,0-4.6,0.7-6.6,1.9c-3.6,2.3-5.7,6.1-5.7,10.3v0.3
					c0,4.7,2.8,9.1,7.1,11.1l39.5,18.3l-39.5,18.3c-4.3,2-7.1,6.4-7.1,11.1v0.3c0,4.2,2.1,8.1,5.7,10.3c2,1.3,4.3,1.9,6.6,1.9
					c1.8,0,3.5-0.4,5.2-1.1l63.1-29.3c4.3-2,7.1-6.4,7.1-11.1v-0.9C315.1,200.7,312.3,196.4,308,194.4z"/>
			</g>
		</g>
	</g>
</g>
</svg>
