<?xml version="1.0" encoding="utf-8"?>
<!-- Generator: Adobe Illustrator 24.3.0, SVG Export Plug-In . SVG Version: 6.00 Build 0)  -->
<svg version="1.1" id="Layer_1" xmlns="http://www.w3.org/2000/svg" xmlns:xlink="http://www.w3.org/1999/xlink" x="0px" y="0px"
	 viewBox="0 0 83 47" style="enable-background:new 0 0 83 47;" xml:space="preserve">
<style type="text/css">
	.st0{fill-rule:evenodd;clip-rule:evenodd;fill:#ED1C24;}
</style>
<path class="st0" d="M9.8,20.2c0-0.4,0.2-5.3,5-5.4h7.1L23.5,8H12.4c-9,0.3-10.6,9.5-10.7,11.2L0,39h8.3L9,30l-4.7-3.1h14.3l0.6-6.7
	C19.3,20.2,9.8,20.2,9.8,20.2z M33.7,17c0.1-1.5,1.6-2.8,5.2-2.8c2.3,0,4.9,0.6,7.3,1.9c0.3,0.1,2.3,1.3,2.8,1.6l0.6-7.9
	c-0.6-0.3-1.2-0.6-1.9-0.9c-2.4-1-5.3-1.5-8.3-1.5c-9,0-13.9,4.5-14.4,10c-1,11.4,16.8,7.9,16.4,12.8c-0.1,1.5-1.6,2.4-5.2,2.4
	c-3.5,0-7.2-1.2-9.8-3c0,0-0.9-0.5-1.5-1L24.3,37l1.3,0.6c2.8,1.2,6.4,1.9,10,1.9c9.2,0,14-4.6,14.5-9.9
	C51.1,18.3,33.3,21.8,33.7,17z M67.8,8.2H56l-2.4,30.6h11.9c10.2,0,16.9-6,17.6-15.3C83.6,14,77.9,8.2,67.8,8.2z M65.5,31.9h-3
	l1.1-12.4l-5.9-4.4h9c5.2,0,8.2,3.1,7.8,8.4C74.3,28.8,70.8,31.9,65.5,31.9z"/>
</svg>
