<svg xmlns="http://www.w3.org/2000/svg" preserveAspectRatio="xMidYMid" width="83" height="47" viewBox="0 0 78 30"><defs><style>.cls-1 { fill: #fff; fill-rule: evenodd; }</style></defs><path d="M9.2 11.9c0-.4.2-5 4.7-5.1h6.7L22.1.4H11.7C3.2.7 1.7 9.3 1.6 10.9L0 29.6h7.8l.7-8.5-4.4-2.9h13.4l.6-6.3H9.2zM31.7 8.9c.1-1.4 1.5-2.6 4.9-2.6 2.2 0 4.6.6 6.9 1.8.3.1 2.2 1.2 2.6 1.5l.6-7.4c-.6-.3-1.1-.6-1.8-.8-2.3-.9-5-1.4-7.8-1.4C28.6 0 24 4.2 23.6 9.4c-.9 10.7 15.8 7.4 15.4 12-.1 1.4-1.5 2.3-4.9 2.3-3.3 0-6.8-1.1-9.2-2.8 0 0-.8-.5-1.4-.9l-.7 7.7 1.2.6c2.6 1.1 6 1.8 9.4 1.8 8.6 0 13.2-4.3 13.6-9.3 1-10.7-15.7-7.4-15.3-11.9zM63.7.6H52.6l-2.3 28.8h11.2c9.6 0 15.9-5.6 16.5-14.4C78.6 6.1 73.2.6 63.7.6zm-2.1 22.3h-2.8l1-11.7-5.5-4.1h8.5c4.9 0 7.7 2.9 7.3 7.9-.3 5-3.6 7.9-8.5 7.9z" fill="#fff" class="cls-1"/></svg>