<?xml version="1.0" encoding="utf-8"?>
<!-- Generator: Adobe Illustrator 24.3.0, SVG Export Plug-In . SVG Version: 6.00 Build 0)  -->
<svg version="1.1" id="Capa_1" xmlns="http://www.w3.org/2000/svg" xmlns:xlink="http://www.w3.org/1999/xlink" x="0px" y="0px"
	 viewBox="0 0 400 400" style="enable-background:new 0 0 400 400;" xml:space="preserve">
<style type="text/css">
	.st0{fill:#9C9C9C;}
</style>
<g>
	<g>
		<path class="st0" d="M365,196.4c-0.8-0.6-1.6-1.3-2.4-1.9c-2.8-40.3-20.4-77.7-49.7-105.9C282.3,59.2,242.3,43.1,200,43.1
			S117.7,59.2,87.1,88.6c-29.3,28.2-46.9,65.6-49.7,105.9c-0.9,0.6-1.7,1.3-2.4,1.9c-22.6,18-35,42-35,67.8S12.4,314,35,332
			c19.9,15.8,45.3,25,69.7,25c4.8,0,9.3-1.9,12.6-5.2c3.4-3.4,5.3-7.9,5.3-12.7V189.2c0-4.8-1.9-9.3-5.3-12.7s-7.9-5.2-12.7-5.2
			c-1.9,0-3.8,0.1-5.7,0.2C113.5,128.9,154,99.2,200,99.2s86.5,29.7,101,72.3c-1.9-0.1-3.8-0.2-5.7-0.2c-4.8,0-9.3,1.9-12.6,5.2
			c-3.4,3.4-5.3,7.9-5.3,12.7V339c0,4.8,1.9,9.3,5.3,12.7c3.4,3.4,7.9,5.2,12.6,5.2l0,0c24.3-0.1,49.7-9.2,69.6-25
			c22.6-18,35-42.1,35-67.8C400,238.4,387.6,214.3,365,196.4z"/>
	</g>
</g>
</svg>
