<?xml version="1.0" encoding="utf-8"?>
<!-- Generator: Adobe Illustrator 24.3.0, SVG Export Plug-In . SVG Version: 6.00 Build 0)  -->
<svg version="1.1" id="Layer_1" xmlns="http://www.w3.org/2000/svg" xmlns:xlink="http://www.w3.org/1999/xlink" x="0px" y="0px"
	 viewBox="0 0 110.6 122.9" style="enable-background:new 0 0 110.6 122.9;" xml:space="preserve">
<style type="text/css">
	.st0{fill:#9C9C9C;}
</style>
<g>
	<path class="st0" d="M33.5,60.6c-0.5,0.1-1,0.1-1.4-0.1c-1.9-1-3.4-1.7-5-1.8c-1.6-0.1-3.2,0.4-5.4,1.7c-0.4,0.3-1,0.3-1.4,0.2
		c-0.5-0.1-0.9-0.4-1.2-0.8s-0.3-1-0.2-1.4c0.1-0.5,0.4-0.9,0.9-1.2c1.2-0.7,2.4-1.2,3.6-1.5c1.2-0.3,2.4-0.5,3.6-0.4
		c1.2,0,2.3,0.2,3.5,0.5c1.1,0.3,2.3,0.8,3.4,1.4c0.5,0.2,0.8,0.6,0.9,1.1c0.1,0.5,0.1,1-0.1,1.4C34.4,60.1,34,60.4,33.5,60.6
		L33.5,60.6z M88,12.7c2.5-2.6,4.6-4.8,8.8-5.3c2.4-0.3,4.8,0.2,6.9,1.3c1.8,0.9,3.4,2.2,4.5,3.8c1.2,1.6,2,3.5,2.2,5.5
		c0.2,2-0.1,4.2-1.2,6.4c-0.6,1.2-1.5,2.5-2.6,3.9c-1.1,1.3-2.3,2.7-3.6,4.1c-1.8,1.9-3.7,3.7-5.4,5.3c-1,1-1.9,1.9-2.7,2.6l-6,5.9
		L88.1,47l-0.8-0.8l-4.9-4.8c-0.9-0.9-1.9-1.8-3-2.8c-5.9-5.4-13-11.8-13.3-19.8c0-0.2,0-0.4,0-0.6c0-3.2,1.3-5.9,3.3-7.7
		c2-1.9,4.7-2.9,7.6-3.1c0.2,0,0.4,0,0.6,0C82.7,7.4,85,9.7,88,12.7L88,12.7L88,12.7z M39.8,112.8c0,0.5,0,1.1,0,1.6
		c0,0.6-0.1,1.3-0.1,1.9c-0.1,0.8-0.2,1.7-0.3,2.5c-0.2,0.8-0.3,1.7-0.6,2.5c-0.2,0.6-0.5,1-1,1.3c-0.5,0.3-1,0.4-1.6,0.2
		s-1-0.5-1.3-1c-0.3-0.5-0.4-1.1-0.2-1.6v0c0.2-0.7,0.4-1.4,0.5-2.2c0.1-0.7,0.2-1.4,0.3-2.2c0-0.4,0.1-0.8,0.1-1.2l0-0.6
		c-0.9,0.2-1.8,0.5-2.7,0.7c-1.1,0.2-2.2,0.5-3.3,0.7c-2.2,0.4-4.4,0.6-6.4,0.7c-1.9,0.1-3.8-0.1-5.4-0.4c-1.3-0.2-2.5-0.6-3.5-1.1
		c-1-0.5-1.9-1.1-2.6-1.8c-0.8-0.8-1.4-1.8-1.8-2.9c-0.4-1.1-0.5-2.3-0.4-3.6c0.1-0.9,0.2-2,0.6-3.1c0.3-1,0.7-2.1,1.2-3.2
		c-0.1-0.6-0.2-1.2-0.3-1.8c-0.1-0.6-0.2-1.3-0.3-2c-0.1-0.8-0.2-1.5-0.2-2.3c-0.1-0.7-0.1-1.5-0.1-2.3c0-0.1,0-0.2,0-0.3
		c-0.1-1.4-0.2-2.8-0.2-4.2c-0.1-1.4-0.1-2.7-0.1-4.1l0-0.4c-1.3-0.1-2.8-0.1-4.1-0.2c-0.6,0-1.1-0.1-1.6-0.3
		c-0.5-0.2-1-0.4-1.5-0.7c-0.4-0.3-0.8-0.6-1.1-1s-0.6-0.8-0.8-1.3c-0.2-0.4-0.4-0.9-0.5-1.4c-0.1-0.5-0.2-1-0.1-1.6
		c0-0.8,0.2-1.6,0.4-2.5c0.3-0.8,0.7-1.6,1.2-2.5l4.6-9.3c1.1-2.3,1.7-3.6,1.9-4.6c0.2-1,0.2-1.7,0.2-2.9v0c0-1.1-0.1-2.5,0-4.6
		c0-1.3,0.1-2.5,0.3-3.7c0.1-1.2,0.4-2.3,0.6-3.5c0.2-0.8,0.4-1.6,0.7-2.4c0.2-0.7,0.5-1.3,0.7-1.9l-8.1-3.5
		c-0.5-0.2-0.9-0.7-1.1-1.2c-0.2-0.5-0.2-1.1,0-1.6l0.1-0.2c0-0.1,0.1-0.1,0.1-0.2l0,0C11.1,19.1,21,10.7,30.9,5.7
		c11.2-5.6,22.4-6.8,32.5-4.8c0.4,0.1,0.9,0.2,1.3,0.3c0.4,0.1,0.9,0.2,1.3,0.3c0.2,0,0.3,0.2,0.3,0.4v3.6c0,0.2-0.2,0.4-0.4,0.4
		c-0.2,0-1.4-0.4-1.8-0.4c-0.6-0.1-1.1-0.2-1.7-0.4c-9.1-1.8-19.2-0.8-29.3,4.2c-8.9,4.4-17.9,11.8-26.5,22.9
		c2.5,1.1,5.6,2.2,7.9,3.5c2.4,0.9,5.3,0.8,8.5,0.3c3.2-0.5,6.5-1.6,9.8-2.6c2.4-0.7,4.8-1.5,7.1-2c2.3-0.5,4.5-0.9,6.5-0.9
		c0.1,0,0.3,0,0.4,0s0.3,0,0.4,0.1c0.6,0.2,1,0.6,1.2,1.1s0.3,1.1,0.1,1.6c-1.1,3.3-1.6,6.1-1.5,8.6c0,2.5,0.5,4.6,1.4,6.4
		c0.9,1.9,2.2,3.5,3.9,4.9c1.7,1.5,3.7,2.8,5.8,4c0.5,0.3,0.9,0.8,1,1.3c0.2,0.5,0.1,1.1-0.2,1.6c-0.3,0.5-0.8,0.9-1.3,1
		c-0.5,0.2-1.1,0.1-1.6-0.2c-2.5-1.4-4.8-2.9-6.8-4.7c-2-1.8-3.6-3.8-4.7-6.1c-1-2.1-1.7-4.4-1.8-7c-0.2-2.5,0.1-5.2,0.8-8.1
		c-1.3,0.2-2.8,0.5-4.3,0.9c-1.7,0.5-3.5,1-5.3,1.5c-3.4,1-6.9,2.1-10.2,2.7c-3.3,0.6-6.5,0.7-9.4,0c-0.2,0.5-0.5,1.1-0.7,1.6
		c-0.2,0.7-0.4,1.4-0.6,2.1c-0.2,1-0.4,2-0.5,3c-0.1,1.1-0.2,2.1-0.2,3.2c-0.1,1.9,0,3.2,0,4.2v0c0.1,1.6,0.1,2.6-0.2,3.9
		c-0.3,1.3-1,2.9-2.3,5.6l-4.7,9.5l-0.1,0.2c-0.3,0.5-0.6,1-0.8,1.5c-0.2,0.5-0.3,0.9-0.3,1.3c0,0.2,0,0.4,0.1,0.6
		c0,0.2,0.1,0.3,0.2,0.5c0.1,0.1,0.1,0.2,0.2,0.3l0,0C4.8,77.9,4.9,78,5,78.1c0.1,0.1,0.3,0.2,0.4,0.2c0.2,0.1,0.3,0.1,0.5,0.1
		c1.7,0,3.7,0.2,5.4,0.3c0.1,0,0.2,0,0.2-0.1c0.1,0,0.2,0,0.3,0c1.6,0,3.5,0.3,5.1,0.4c0.6,0.1,1.1,0.3,1.4,0.8s0.5,1,0.5,1.6
		s-0.3,1.1-0.8,1.5c-0.4,0.3-1,0.6-1.6,0.5c-0.8-0.1-1.7-0.1-2.5-0.2v0.1c0,1.2,0,2.5,0.1,3.7c0,1.1,0.1,2.3,0.2,3.4
		c0.6,0.3,1.1,0.5,1.7,0.6c0.6,0.2,1.2,0.3,1.8,0.4c0.7,0.1,1.3,0.1,2-0.1c0.6-0.1,1.3-0.3,1.9-0.6c0.5-0.2,1.1-0.2,1.6,0
		c0.5,0.2,1,0.6,1.2,1.1l0,0c0.2,0.5,0.2,1.1,0,1.6c-0.2,0.5-0.6,0.9-1.1,1.2h0c-1,0.4-2,0.7-3,0.9c-1,0.2-2,0.2-3.1,0.1
		c-0.5-0.1-1.1-0.1-1.6-0.3c-0.3-0.1-0.7-0.2-1-0.3l0.1,0.8c0.1,0.7,0.2,1.3,0.3,2c0.1,0.7,0.3,1.4,0.4,2.1l0,0
		c0.1,0.3,0.1,0.5,0,0.8c0,0.3-0.1,0.5-0.3,0.7c-0.5,1-0.9,2-1.1,2.8c-0.3,0.9-0.4,1.7-0.5,2.4c-0.1,0.7,0,1.3,0.2,1.9
		c0.2,0.5,0.5,1,0.8,1.4c0.4,0.4,0.9,0.8,1.6,1.1c0.7,0.3,1.5,0.5,2.3,0.7c1.4,0.3,2.9,0.3,4.6,0.3c1.8-0.1,3.7-0.3,5.6-0.6
		c2-0.3,4-0.8,6.1-1.4c1.9-0.5,3.8-1.1,5.6-1.8c1.6-0.6,3.2-1.3,4.6-2.1c1.3-0.7,2.5-1.5,3.6-2.3c1-0.8,1.8-1.9,2.4-3.1l0,0
		c0.6-1.2,1.1-2.5,1.5-3.7l0.4-1.2l0.2-0.7c0.5-1.5,1.3-3.5,2.2-5.3c0.9-1.9,2-3.7,3.2-4.6c0.5-0.4,1-0.5,1.6-0.4s1.1,0.3,1.4,0.8
		c0.4,0.5,0.5,1,0.4,1.6s-0.3,1.1-0.8,1.4c-0.7,0.6-1.5,1.9-2.2,3.5c-0.7,1.6-1.3,3.3-1.8,4.6c-0.2,0.6-0.5,1.2-0.7,1.8
		c-0.5,1.4-1.1,3-1.9,4.6c-0.8,1.5-1.9,3-3.4,4.2c-1.2,1-2.6,1.9-4.1,2.7c-1.6,0.9-3.4,1.7-5.2,2.4c-0.4,0.2-0.8,0.3-1.2,0.5
		L39.8,112.8L39.8,112.8z M106.7,52.4c0.2,8.5-1.8,17.2-6.7,25.2c-4.4,7.2-11.1,13.9-20.6,19.4c-0.1,0.1-0.3,0.1-0.4,0.2l-0.1,0
		c0,1.2,0.1,2.5,0.1,3.7c0.1,1.3,0.2,2.6,0.4,3.9c0.3,2.5,0.8,4.9,1.3,7.3s1.3,4.6,2.1,6.8c0.2,0.6,0.2,1.1-0.1,1.6
		c-0.2,0.5-0.6,0.9-1.2,1.1s-1.1,0.2-1.6-0.1c-0.5-0.2-0.9-0.6-1.1-1.2c-0.9-2.4-1.7-4.8-2.3-7.3c-0.6-2.5-1.1-5.1-1.4-7.8
		c-0.3-2.7-0.5-5.4-0.5-8.2c0-2.8,0.1-5.8,0.4-8.8c0.1-0.6,0.3-1.1,0.8-1.4c0.4-0.3,1-0.5,1.6-0.5h0c0.6,0.1,1.1,0.3,1.4,0.8
		s0.5,1,0.5,1.6c-0.1,0.7-0.1,1.4-0.2,2.1L79,92.3c8-5,13.7-10.9,17.5-17.3c4.3-7.2,6.1-15,5.9-22.6c0-0.2,0.2-0.4,0.4-0.4h3.5
		C106.5,52,106.7,52.2,106.7,52.4L106.7,52.4L106.7,52.4z M68.9,66.2c0.1,0.6,0,1.2-0.3,1.6s-0.8,0.8-1.4,0.9s-1.2,0-1.6-0.3
		s-0.8-0.8-0.9-1.4c-0.1-0.6-0.2-1.2-0.1-1.8c0-0.6,0.1-1.2,0.3-1.7c0.2-0.7,0.5-1.4,0.9-2c0.4-0.6,0.9-1.2,1.5-1.7
		c0.6-0.5,1.2-0.9,1.9-1.2c0.7-0.3,1.4-0.5,2.1-0.7c0.6-0.1,1.3-0.2,1.9-0.1c0.6,0,1.3,0.1,1.9,0.3c1.7,0.5,2.9,1.2,3.8,2
		c0.9,0.9,1.3,1.9,1.5,3c0.1,1,0,2-0.3,3.1c-0.3,1-0.7,2.1-1.2,3.2c-0.4,0.9-1.5,3.2-2.9,5.7c-1.4,2.6-3.1,5.4-4.8,7.6
		c-2.4,3.2-4.9,5.3-6.9,5c-2-0.3-3.5-3.1-3.8-9.8v0c0-0.6,0.2-1.1,0.5-1.5l0,0c0.4-0.4,0.9-0.6,1.5-0.7h0c0.6,0,1.1,0.2,1.5,0.6
		c0.4,0.4,0.7,0.9,0.7,1.5v0c0.1,2.6,0.6,3.7,1.1,3.9c0.5,0.2,1.2-0.5,2-1.5c1.6-2,3.1-4.7,4.4-7.1c1.3-2.4,2.3-4.6,2.8-5.5
		c0.4-0.8,0.7-1.5,0.9-2.2c0.2-0.6,0.3-1.2,0.2-1.6c0-0.3-0.2-0.5-0.5-0.8c-0.4-0.3-0.9-0.5-1.7-0.8C73.7,62,73.3,62,73,62
		c-0.3,0-0.7,0-1,0.1c-0.4,0.1-0.7,0.2-1.1,0.3c-0.3,0.2-0.7,0.4-0.9,0.6c-0.3,0.2-0.5,0.5-0.7,0.8c-0.2,0.3-0.3,0.6-0.4,0.9
		c-0.1,0.2-0.1,0.5-0.1,0.8C68.8,65.6,68.9,65.9,68.9,66.2L68.9,66.2z"/>
</g>
</svg>
