<?xml version="1.0" encoding="utf-8"?>
<!-- Generator: Adobe Illustrator 24.3.0, SVG Export Plug-In . SVG Version: 6.00 Build 0)  -->
<svg version="1.1" id="Layer_1" xmlns="http://www.w3.org/2000/svg" xmlns:xlink="http://www.w3.org/1999/xlink" x="0px" y="0px"
	 viewBox="0 0 24 24" style="enable-background:new 0 0 24 24;" xml:space="preserve">
<style type="text/css">
	.st0{fill:#9C9C9C;}
</style>
<path class="st0" d="M24,23h-2.8l-1.1-3h-4.9l-1.1,3h-2.7l4.9-13H19L24,23z M19.4,17.9L17.7,13L16,17.9H19.4z M10.2,7.1
	c0.1-0.5,0.2-0.9,0.3-1.2L8.2,5.5c0,0.2-0.1,0.5-0.2,1c-0.7-0.1-1.5-0.1-2.3,0c0-0.5,0.1-1.1,0.1-1.6h2.5V2.8H6.1
	c0.1-0.5,0.2-0.8,0.3-1.1L4.2,1C4.1,1.5,3.9,2,3.8,2.8H1.4v2.1h2.2C3.5,5.5,3.4,6.2,3.4,7C1,7.8,0,9.5,0,11.1c0,1.8,1.4,3.4,3.7,3.2
	c2.8-0.3,4.7-2.4,5.8-5c1.1,0.7,1.6,1.8,1.2,2.8c-0.4,0.9-1.6,1.8-3.8,1.8v2.2c2.5,0,4.9-0.9,5.8-3.2C13.6,10.7,12.6,8.3,10.2,7.1z
	 M7.3,8.7c-0.3,0.8-0.8,1.5-1.4,2.1c-0.1-0.6-0.2-1.4-0.2-2.1C6.2,8.6,6.8,8.6,7.3,8.7z M3.5,9.4c0.1,0.9,0.2,1.8,0.3,2.6
	C1.8,12.3,1.7,10.4,3.5,9.4z"/>
</svg>
