<svg id="Layer_1" data-name="Layer 1" xmlns="http://www.w3.org/2000/svg" viewBox="0 0 98.44 98.44"><defs><style>.cls-1{fill:none;stroke:#fff;stroke-miterlimit:10;stroke-width:1.83px;}.cls-2{fill:#ababab;}.cls-3{fill:#fff;}</style></defs><circle class="cls-1" cx="49.22" cy="49.22" r="48.3"/><circle class="cls-2" cx="50" cy="50" r="32.29" transform="translate(-16.94 24.26) rotate(-24.33)"/><path d="M38.89,57.4,41.1,47,34.73,57.4h-3L29.64,47,27.43,57.4h-3.2l3.63-17.2H32l2.24,12,7.42-12h4L42.07,57.4Z" transform="translate(-0.78 -0.78)"/><path d="M47.66,57.4A3,3,0,0,1,45.81,57a1.72,1.72,0,0,1-.56-1.43c0-.17,0-.34,0-.52a5.35,5.35,0,0,1,.1-.6l2.37-11.2a4.23,4.23,0,0,1,1.13-2.27,3.48,3.48,0,0,1,2.43-.73H61l-.71,3.43H52.49a1.24,1.24,0,0,0-.82.19,1.41,1.41,0,0,0-.35.77L49.52,53c0,.09,0,.16,0,.22a1.15,1.15,0,0,0,0,.19.47.47,0,0,0,.17.4,1.17,1.17,0,0,0,.66.13h7.83L57.4,57.4Z" transform="translate(-0.78 -0.78)"/><path d="M59.78,57.4l2.67-12.55h3.82l-2,9.2h5.41c.9,0,1.47-.55,1.7-1.65L73,45.23a2.53,2.53,0,0,0,.08-.59c0-.71-.37-1.06-1.1-1.06H62.71l.71-3.38h9.94c2.5,0,3.76,1,3.76,3A5.89,5.89,0,0,1,77,44.59L75.16,53a5.57,5.57,0,0,1-1.8,3.27,5.5,5.5,0,0,1-3.64,1.12Z" transform="translate(-0.78 -0.78)"/><path class="cls-3" d="M38.89,57.4,41.1,47,34.73,57.4h-3L29.64,47,27.43,57.4h-3.2l3.63-17.2H32l2.24,12,7.42-12h4L42.07,57.4Z" transform="translate(-0.78 -0.78)"/><path class="cls-3" d="M47.66,57.4A3,3,0,0,1,45.81,57a1.72,1.72,0,0,1-.56-1.43c0-.17,0-.34,0-.52a5.35,5.35,0,0,1,.1-.6l2.37-11.2a4.23,4.23,0,0,1,1.13-2.27,3.48,3.48,0,0,1,2.43-.73H61l-.71,3.43H52.49a1.24,1.24,0,0,0-.82.19,1.41,1.41,0,0,0-.35.77L49.52,53c0,.09,0,.16,0,.22a1.15,1.15,0,0,0,0,.19.47.47,0,0,0,.17.4,1.17,1.17,0,0,0,.66.13h7.83L57.4,57.4Z" transform="translate(-0.78 -0.78)"/><path class="cls-3" d="M59.78,57.4l2.67-12.55h3.82l-2,9.2h5.41c.9,0,1.47-.55,1.7-1.65L73,45.23a2.53,2.53,0,0,0,.08-.59c0-.71-.37-1.06-1.1-1.06H62.71l.71-3.38h9.94c2.5,0,3.76,1,3.76,3A5.89,5.89,0,0,1,77,44.59L75.16,53a5.57,5.57,0,0,1-1.8,3.27,5.5,5.5,0,0,1-3.64,1.12Z" transform="translate(-0.78 -0.78)"/></svg>