<?xml version="1.0" encoding="utf-8"?>
<!-- Generator: Adobe Illustrator 24.3.0, SVG Export Plug-In . SVG Version: 6.00 Build 0)  -->
<svg version="1.1" id="Capa_1" xmlns="http://www.w3.org/2000/svg" xmlns:xlink="http://www.w3.org/1999/xlink" x="0px" y="0px"
	 viewBox="0 0 32.1 32.1" style="enable-background:new 0 0 32.1 32.1;" xml:space="preserve">
<style type="text/css">
	.st0{fill:#F05024;}
</style>
<g>
	<path class="st0" d="M12.1,28.1c0,2.2,1.8,4,4,4s4-1.8,4-4c0-2.2-1.8-4-4-4C13.8,24.1,12.1,25.9,12.1,28.1z M12.1,15.8
		c0,2.2,1.8,4,4,4s4-1.8,4-4s-1.8-4-4-4C13.8,11.9,12.1,13.6,12.1,15.8z M12.1,4c0,2.2,1.8,4,4,4c2.2,0,4-1.8,4-4c0-2.2-1.8-4-4-4
		S12.1,1.8,12.1,4z"/>
</g>
</svg>
