<?xml version="1.0" encoding="utf-8"?>
<!-- Generator: Adobe Illustrator 24.3.0, SVG Export Plug-In . SVG Version: 6.00 Build 0)  -->
<svg version="1.1" id="Layer_1" xmlns="http://www.w3.org/2000/svg" xmlns:xlink="http://www.w3.org/1999/xlink" x="0px" y="0px"
	 viewBox="0 0 122.9 95.5" style="enable-background:new 0 0 122.9 95.5;" xml:space="preserve">
<style type="text/css">
	.st0{fill-rule:evenodd;clip-rule:evenodd;fill:#9C9C9C;}
</style>
<g>
	<path class="st0" d="M8.3,0h106.2c4.6,0,8.3,3.7,8.3,8.3v78.9c0,4.6-3.7,8.3-8.3,8.3H8.3c-4.6,0-8.3-3.7-8.3-8.3V8.3
		C0,3.7,3.7,0,8.3,0L8.3,0z M12.6,27h96.8V68H12.6V27L12.6,27z M32.2,38.7h6v12.4c0,1.2-0.2,2.4-0.5,3.5c-0.4,1.1-0.9,2.1-1.7,2.9
		c-0.8,0.8-1.6,1.4-2.4,1.7c-1.2,0.5-2.6,0.7-4.2,0.7c-0.9,0-2-0.1-3.1-0.2c-1.1-0.1-2-0.4-2.8-0.8c-0.8-0.4-1.4-1-2-1.8
		c-0.6-0.8-1-1.6-1.3-2.4c-0.4-1.3-0.6-2.5-0.6-3.5V38.7h6v12.7c0,1.1,0.3,2,0.9,2.7c0.6,0.6,1.4,1,2.4,1c1,0,1.8-0.3,2.4-1
		c0.6-0.6,0.9-1.5,0.9-2.7L32.2,38.7L32.2,38.7z M42.4,38.7h6v20.9h-6V38.7L42.4,38.7z M55.6,38.3h2.7l-4.9,21.6h-2.7L55.6,38.3
		L55.6,38.3z M72.8,38.7h6v12.4c0,1.2-0.2,2.4-0.5,3.5c-0.4,1.1-0.9,2.1-1.7,2.9s-1.6,1.4-2.4,1.7c-1.2,0.5-2.6,0.7-4.2,0.7
		c-0.9,0-2-0.1-3.1-0.2c-1.1-0.1-2.1-0.4-2.8-0.8c-0.8-0.4-1.4-1-2-1.8s-1-1.6-1.3-2.4c-0.4-1.3-0.5-2.5-0.5-3.5V38.7h6v12.7
		c0,1.1,0.3,2,0.9,2.7c0.6,0.6,1.4,1,2.4,1c1,0,1.8-0.3,2.4-1c0.6-0.6,0.9-1.5,0.9-2.7V38.7L72.8,38.7z M81.4,38.7H88l3.4,6.4
		l3.3-6.4h6.5l-6,10.1l6.6,10.8h-6.7l-3.8-6.7l-3.8,6.7h-6.7l6.7-10.9L81.4,38.7L81.4,38.7z M66.9,83.7c-1.8,0-3.2-1.6-3.2-3.5
		c0-1.9,1.4-3.5,3.2-3.5h39.7c1.8,0,3.2,1.6,3.2,3.5c0,1.9-1.4,3.5-3.2,3.5H66.9L66.9,83.7z M15,83.7c-1.8,0-3.2-1.6-3.2-3.5
		c0-1.9,1.4-3.5,3.2-3.5h36.8c1.8,0,3.2,1.6,3.2,3.5c0,1.9-1.4,3.5-3.2,3.5H15L15,83.7z M118,20.1H5.3V88c0,0.6,0.2,1.2,0.7,1.6
		c0.4,0.4,1,0.7,1.6,0.7h108c0.6,0,1.2-0.2,1.6-0.7c0.4-0.4,0.7-1,0.7-1.6L118,20.1L118,20.1L118,20.1z M106.6,6.2
		c2.3,0,4.1,1.8,4.1,4.1s-1.8,4.1-4.1,4.1c-2.3,0-4.1-1.8-4.1-4.1C102.5,8,104.4,6.2,106.6,6.2L106.6,6.2z M78.8,6.2
		c2.3,0,4.1,1.8,4.1,4.1s-1.8,4.1-4.1,4.1c-2.3,0-4.1-1.8-4.1-4.1S76.5,6.2,78.8,6.2L78.8,6.2z M92.7,6.2c2.3,0,4.1,1.8,4.1,4.1
		s-1.8,4.1-4.1,4.1c-2.3,0-4.1-1.8-4.1-4.1S90.4,6.2,92.7,6.2L92.7,6.2z"/>
</g>
</svg>
