<?xml version="1.0" encoding="utf-8"?>
<!-- Generator: Adobe Illustrator 24.3.0, SVG Export Plug-In . SVG Version: 6.00 Build 0)  -->
<svg version="1.1" id="Layer_1" xmlns="http://www.w3.org/2000/svg" xmlns:xlink="http://www.w3.org/1999/xlink" x="0px" y="0px"
	 viewBox="0 0 100 67.7" style="enable-background:new 0 0 100 67.7;" xml:space="preserve">
<style type="text/css">
	.st0{fill:#792812;}
	.st1{fill:#D84820;}
	.st2{fill:#8F3015;}
	.st3{fill:#923116;}
	.st4{clip-path:url(#SVGID_2_);}
	.st5{fill:#7D2A13;}
	.st6{clip-path:url(#SVGID_4_);}
	.st7{fill:#903016;}
	.st8{fill:#782812;}
	.st9{fill:#943116;}
	.st10{fill:#7B2912;}
	.st11{fill:#7C2913;}
	.st12{fill:#AA3919;}
	.st13{clip-path:url(#SVGID_6_);}
	.st14{fill:#9E3518;}
	.st15{clip-path:url(#SVGID_8_);}
	.st16{fill:#A03518;}
	.st17{fill:#AB391A;}
	.st18{fill:#A33618;}
	.st19{fill:url(#SVGID_9_);}
	.st20{fill:url(#SVGID_10_);}
	.st21{fill:url(#SVGID_11_);}
	.st22{fill:url(#SVGID_12_);}
</style>
<g>
	<g id="Layer_4">
		
			<image style="overflow:visible;opacity:0.5;enable-background:new    ;" width="874" height="592" xlink:href="241D5A6B.png"  transform="matrix(0.1144 0 0 0.1144 0 0)">
		</image>
		<g>
			<polygon class="st0" points="9.8,8.5 9.8,12.5 3.4,6.4 3.4,2.4 			"/>
			<polygon class="st0" points="10.2,8.8 10.2,12.8 9.8,12.5 9.8,8.5 			"/>
			<polygon class="st1" points="3.4,2.4 10.6,4.5 10.2,8.8 9.8,8.5 			"/>
			<polygon class="st2" points="10.6,4.5 10.6,8.5 10.2,12.8 10.2,8.8 			"/>
			<polygon class="st3" points="22.2,12.6 22.2,16.6 20.4,27.1 20.4,23.1 			"/>
			<g>
				<g>
					<defs>
						<path id="SVGID_1_" d="M32.7,31.1v4c-4-3.1-8-5.4-11.7-7.7v-4C24.7,25.7,28.7,28,32.7,31.1z"/>
					</defs>
					<clipPath id="SVGID_2_">
						<use xlink:href="#SVGID_1_"  style="overflow:visible;"/>
					</clipPath>
					<g class="st4">
						<g>
							<path class="st5" d="M32.7,31.1v4c-4-3.1-8-5.4-11.7-7.7v-4C24.7,25.7,28.7,28,32.7,31.1"/>
						</g>
					</g>
				</g>
			</g>
			<g>
				<g>
					<defs>
						<path id="SVGID_3_" d="M20.4,23.1v4c-0.6,4.5-1.3,9.2-1.7,13.6v-4C19.1,32.3,19.8,27.6,20.4,23.1z"/>
					</defs>
					<clipPath id="SVGID_4_">
						<use xlink:href="#SVGID_3_"  style="overflow:visible;"/>
					</clipPath>
					<g class="st6">
						<g>
							<path class="st7" d="M20.4,23.1v4c-0.6,4.5-1.3,9.2-1.7,13.6v-4C19.1,32.3,19.8,27.6,20.4,23.1"/>
						</g>
					</g>
				</g>
			</g>
			<polygon class="st8" points="17.5,42.9 17.5,46.9 17.1,46.3 17.1,42.2 			"/>
			<polygon class="st9" points="18.7,36.7 18.7,40.7 17.5,46.9 17.5,42.9 			"/>
			<polygon class="st7" points="17.1,42.2 17.1,46.3 16.5,51.1 16.5,47.1 			"/>
			<polygon class="st10" points="16.6,47.1 16.6,51.2 4.2,42.3 4.2,38.3 			"/>
			<path class="st1" d="M10.6,4.5l11.6,8.1l-1.8,10.5c-0.6,4.5-1.3,9.2-1.7,13.6l-1.3,6.2l-0.3-0.6l-0.6,4.8l0.1,0.1L4.2,38.3
				L9.8,8.5l0.4,0.3L10.6,4.5z"/>
			<polygon class="st11" points="16.6,47.1 16.6,51.2 16.5,51.1 16.5,47.1 			"/>
			<polygon class="st1" points="17.1,42.2 17.5,42.9 21.6,50.6 16.6,47.1 16.5,47.1 			"/>
			<polygon class="st11" points="21.6,50.6 21.6,54.6 16.6,51.2 16.6,47.1 			"/>
			<path class="st1" d="M22.6,12.9l19.2,13.4c2.9,6.2,5.8,13,7.8,19L49.8,59L32.7,31.1c-4-3.1-8-5.4-11.7-7.7L22.6,12.9z"/>
			<polygon class="st8" points="49.8,59 49.8,63 32.7,35.2 32.7,31.1 			"/>
		</g>
		<g>
			<polygon class="st12" points="96.6,2.4 96.6,6.4 90.2,12.5 90.2,8.5 			"/>
			<polygon class="st12" points="90.2,8.5 90.2,12.5 89.8,12.8 89.8,8.8 			"/>
			<polygon class="st1" points="96.6,2.4 90.2,8.5 89.8,8.8 89.4,4.5 			"/>
			<polygon class="st8" points="89.8,8.8 89.8,12.8 89.4,8.5 89.4,4.5 			"/>
			<polygon class="st8" points="79.6,23.1 79.6,27.1 77.8,16.6 77.8,12.6 			"/>
			<g>
				<g>
					<defs>
						<path id="SVGID_5_" d="M79,23.4v4c-3.7,2.3-7.7,4.6-11.7,7.7v-4C71.3,28,75.3,25.7,79,23.4z"/>
					</defs>
					<clipPath id="SVGID_6_">
						<use xlink:href="#SVGID_5_"  style="overflow:visible;"/>
					</clipPath>
					<g class="st13">
						<g>
							<path class="st14" d="M79,23.4v4c-3.7,2.3-7.7,4.6-11.7,7.7v-4C71.3,28,75.3,25.7,79,23.4"/>
						</g>
					</g>
				</g>
			</g>
			<g>
				<g>
					<defs>
						<path id="SVGID_7_" d="M81.3,36.7v4c-0.4-4.4-1-9.1-1.6-13.6v-4C80.2,27.6,80.9,32.3,81.3,36.7z"/>
					</defs>
					<clipPath id="SVGID_8_">
						<use xlink:href="#SVGID_7_"  style="overflow:visible;"/>
					</clipPath>
					<g class="st15">
						<g>
							<path class="st5" d="M81.3,36.7v4c-0.4-4.4-1-9.1-1.6-13.6v-4C80.2,27.6,80.9,32.3,81.3,36.7"/>
						</g>
					</g>
				</g>
			</g>
			<polygon class="st8" points="82.5,42.9 82.5,46.9 81.3,40.7 81.3,36.7 			"/>
			<polygon class="st16" points="82.9,42.2 82.9,46.3 82.5,46.9 82.5,42.9 			"/>
			<polygon class="st8" points="83.5,47 83.5,51.1 82.9,46.3 82.9,42.2 			"/>
			<polygon class="st17" points="83.5,47 83.5,51.1 83.4,51.1 83.4,47.1 			"/>
			<path class="st1" d="M89.4,4.5l0.4,4.3l0.4-0.3l5.7,29.8l-12.4,8.9l0.1-0.1l-0.6-4.8l-0.4,0.7l-1.3-6.2c-0.4-4.4-1-9.1-1.6-13.6
				l-1.8-10.5L89.4,4.5z"/>
			<polygon class="st17" points="95.8,38.3 95.8,42.3 83.4,51.2 83.4,47.1 			"/>
			<polygon class="st17" points="83.4,47.1 83.4,51.1 78.4,54.6 78.4,50.5 			"/>
			<polygon class="st1" points="82.9,42.2 83.5,47 83.4,47.1 78.4,50.5 82.5,42.9 			"/>
			<path class="st1" d="M77.4,12.9L79,23.4c-3.7,2.3-7.7,4.6-11.7,7.7L50.2,59l0.1-13.7c2-6,4.8-12.8,7.8-19L77.4,12.9z"/>
			<polygon class="st18" points="67.3,31.1 67.3,35.2 50.2,63 50.2,59 			"/>
		</g>
		
			<linearGradient id="SVGID_9_" gradientUnits="userSpaceOnUse" x1="75.7489" y1="-166.476" x2="75.7489" y2="-146.7414" gradientTransform="matrix(1 0 0 -1 -63 -144.2654)">
			<stop  offset="0" style="stop-color:#FFFFFF;stop-opacity:0.3"/>
			<stop  offset="0.99" style="stop-color:#FFFFFF;stop-opacity:0"/>
		</linearGradient>
		<path class="st19" d="M20.5,22.2c-4.4-0.6-8.6-1.9-12.6-3.8l1.9-9.9l-6.4-6l7.2,2l11.5,8.2L20.5,22.2z"/>
		
			<linearGradient id="SVGID_10_" gradientUnits="userSpaceOnUse" x1="93.476" y1="-169.0938" x2="93.476" y2="-157.1373" gradientTransform="matrix(1 0 0 -1 -63 -144.2654)">
			<stop  offset="0" style="stop-color:#FFFFFF;stop-opacity:0.3"/>
			<stop  offset="0.99" style="stop-color:#FFFFFF;stop-opacity:0"/>
		</linearGradient>
		<path class="st20" d="M21.1,22.3c0,0,10.3,2.5,18.7,2.6l-17.2-12L21.1,22.3z"/>
		
			<linearGradient id="SVGID_11_" gradientUnits="userSpaceOnUse" x1="-544.1537" y1="-166.476" x2="-544.1537" y2="-146.7414" gradientTransform="matrix(-1 0 0 -1 -456.89 -144.2654)">
			<stop  offset="0" style="stop-color:#FFFFFF;stop-opacity:0.3"/>
			<stop  offset="0.99" style="stop-color:#FFFFFF;stop-opacity:0"/>
		</linearGradient>
		<path class="st21" d="M79.5,22.2c4.4-0.6,8.6-1.9,12.6-3.8l-1.9-9.9l6.4-6l-7.2,2L78,12.6L79.5,22.2z"/>
		
			<linearGradient id="SVGID_12_" gradientUnits="userSpaceOnUse" x1="-526.4266" y1="-169.0938" x2="-526.4266" y2="-157.1373" gradientTransform="matrix(-1 0 0 -1 -456.89 -144.2654)">
			<stop  offset="0" style="stop-color:#FFFFFF;stop-opacity:0.3"/>
			<stop  offset="0.99" style="stop-color:#FFFFFF;stop-opacity:0"/>
		</linearGradient>
		<path class="st22" d="M78.9,22.3c0,0-10.3,2.5-18.7,2.6l17.2-12L78.9,22.3z"/>
	</g>
</g>
</svg>
