<svg width="16" height="16" viewBox="0 0 16 16" fill="none" xmlns="http://www.w3.org/2000/svg">
<g clip-path="url(#clip0_219_190)">
<path fill-rule="evenodd" clip-rule="evenodd" d="M3.32333 1.33334C2.41 1.33334 1.73467 2.13267 1.76533 2.99867C1.794 3.832 1.75667 4.91 1.48533 5.78934C1.212 6.67067 0.752 7.22934 0 7.30134V8.11134C0.752 8.18267 1.21267 8.74134 1.48467 9.62334C1.75667 10.5027 1.794 11.5807 1.76467 12.4133C1.73467 13.28 2.41 14.0793 3.32333 14.0793H12.678C13.5913 14.0793 14.2667 13.28 14.236 12.4133C14.2073 11.5807 14.2447 10.5027 14.516 9.62334C14.7887 8.74134 15.248 8.18334 16 8.11134V7.30134C15.248 7.22934 14.7887 6.67067 14.516 5.78934C14.2447 4.90934 14.2073 3.83134 14.236 2.99867C14.2667 2.132 13.5907 1.33334 12.678 1.33334H3.32333ZM10.8467 9.17934C10.8467 10.3727 9.95667 11.096 8.48 11.096H5.966C5.89404 11.096 5.82502 11.0674 5.77414 11.0165C5.72325 10.9656 5.69467 10.8966 5.69467 10.8247V4.58734C5.69484 4.51549 5.72351 4.44665 5.77437 4.39591C5.82524 4.34516 5.89415 4.31667 5.966 4.31667H8.466C9.69733 4.31667 10.506 4.98334 10.506 6.008C10.506 6.72667 9.962 7.37 9.26933 7.48334V7.52067C10.2127 7.624 10.8473 8.27734 10.8473 9.17934H10.8467ZM8.20667 5.176H6.77333V7.20134H7.98067C8.914 7.20134 9.42867 6.82534 9.42867 6.15334C9.42867 5.524 8.986 5.176 8.20667 5.176ZM6.77333 8.00467V10.236H8.26C9.23133 10.236 9.74667 9.846 9.74667 9.11334C9.74667 8.38 9.21733 8.00467 8.19733 8.00467H6.77333Z" fill="#F7F7F7"/>
</g>
<defs>
<clipPath id="clip0_219_190">
<rect width="16" height="16" fill="white"/>
</clipPath>
</defs>
</svg>
