<svg width="16" height="16" viewBox="0 0 16 16" fill="none" xmlns="http://www.w3.org/2000/svg">
<g clip-path="url(#clip0_219_151)">
<path d="M8 8C8 4.4455 13.3335 4.4455 13.3335 8C13.3335 11.5545 8 11.5545 8 8ZM2.6665 13.3335C2.6663 12.9833 2.73514 12.6364 2.86907 12.3128C3.00301 11.9892 3.19941 11.6952 3.44706 11.4476C3.69471 11.1999 3.98874 11.0035 4.31234 10.8696C4.63595 10.7356 4.98278 10.6668 5.333 10.667H7.9995V13.3335C7.9995 16.888 2.666 16.888 2.666 13.3335H2.6665ZM8 6.97095e-07V5.3335H10.6665C14.221 5.3335 14.221 6.97095e-07 10.6665 6.97095e-07H8ZM2.6665 2.6665C2.6663 3.01673 2.73514 3.36356 2.86907 3.68716C3.00301 4.01076 3.19941 4.30479 3.44706 4.55244C3.69471 4.80009 3.98874 4.99649 4.31234 5.13043C4.63595 5.26436 4.98278 5.3332 5.333 5.333H7.9995V-0.000499303H5.333C4.98278 -0.000696483 4.63595 0.06814 4.31234 0.202074C3.98874 0.336009 3.69471 0.532414 3.44706 0.780061C3.19941 1.02771 3.00301 1.32174 2.86907 1.64534C2.73514 1.96895 2.6663 2.31578 2.6665 2.666V2.6665ZM2.6665 8C2.6663 8.35023 2.73514 8.69706 2.86907 9.02066C3.00301 9.34426 3.19941 9.63829 3.44706 9.88594C3.69471 10.1336 3.98874 10.33 4.31234 10.4639C4.63595 10.5979 4.98278 10.6667 5.333 10.6665H7.9995V5.333H5.333C4.98278 5.3328 4.63595 5.40164 4.31234 5.53557C3.98874 5.66951 3.69471 5.86591 3.44706 6.11356C3.19941 6.36121 3.00301 6.65524 2.86907 6.97884C2.73514 7.30245 2.6663 7.64927 2.6665 7.9995V8Z" fill="white"/>
</g>
<defs>
<clipPath id="clip0_219_151">
<rect width="16" height="16" fill="white"/>
</clipPath>
</defs>
</svg>
