<svg width="17" height="16" viewBox="0 0 17 16" fill="none" xmlns="http://www.w3.org/2000/svg">
<g clip-path="url(#clip0_219_206)">
<path d="M8.5 0C4.1 0 0.5 3.6 0.5 8C0.5 12.4 4.1 16 8.5 16C12.9 16 16.5 12.4 16.5 8C16.5 3.6 12.9 0 8.5 0ZM4.04286 12.4571C2.84286 11.2571 2.21429 9.65714 2.21429 8.11429L8.44286 14.2857C6.84286 14.2286 5.24286 13.6571 4.04286 12.4571ZM9.87143 14.1143L2.38571 6.62857C3.01429 3.82857 5.52857 1.71429 8.5 1.71429C10.6143 1.71429 12.4429 2.74286 13.5857 4.28571L12.7286 5.02857C11.7571 3.71429 10.2143 2.85714 8.5 2.85714C6.27143 2.85714 4.38571 4.28571 3.64286 6.28571L10.2143 12.8571C11.8714 12.2857 13.1286 10.8571 13.5286 9.14286H10.7857V8H14.7857C14.7857 10.9714 12.6714 13.4857 9.87143 14.1143Z" fill="white"/>
</g>
<defs>
<clipPath id="clip0_219_206">
<rect width="16" height="16" fill="white" transform="translate(0.5)"/>
</clipPath>
</defs>
</svg>
