<svg width="16" height="16" viewBox="0 0 16 16" fill="none" xmlns="http://www.w3.org/2000/svg">
<path fill-rule="evenodd" clip-rule="evenodd" d="M7.58933 2.79134C7.84333 2.86813 8.11376 2.87229 8.37 2.80334L12.5873 10.258C12.3921 10.4461 12.2549 10.6863 12.192 10.95H3.80666C3.73919 10.6731 3.59063 10.4226 3.38 10.2307L7.58867 2.79134H7.58933ZM6.97533 2.41467C6.98733 2.428 7.00067 2.44067 7.01333 2.45334L2.79533 9.91C2.77544 9.90467 2.75544 9.89979 2.73533 9.89534V6.104C2.9271 6.0611 3.10784 5.97872 3.26601 5.8621C3.42418 5.74548 3.55631 5.59718 3.654 5.42667C3.75128 5.25712 3.81272 5.0694 3.83451 4.87515C3.8563 4.68089 3.83797 4.48422 3.78066 4.29734L6.97533 2.41534V2.41467ZM9.35533 1.858C9.4229 1.64587 9.43974 1.42084 9.40449 1.20101C9.36925 0.98118 9.2829 0.772692 9.1524 0.592314C9.0219 0.411937 8.85089 0.264704 8.65312 0.16246C8.45535 0.060216 8.23634 0.00581447 8.01372 0.00363134C7.79109 0.0014482 7.57106 0.0515444 7.37133 0.14989C7.17159 0.248236 6.99772 0.392087 6.86371 0.569871C6.7297 0.747655 6.63928 0.954409 6.59973 1.1735C6.56018 1.3926 6.5726 1.61792 6.636 1.83134L3.43933 3.71534C3.28593 3.55801 3.09812 3.43841 2.89067 3.36595C2.68323 3.29348 2.4618 3.27013 2.2438 3.29772C2.0258 3.32531 1.81717 3.40309 1.63432 3.52495C1.45147 3.64681 1.29937 3.80942 1.19 4C1.08076 4.19082 1.01698 4.40426 1.0036 4.62372C0.990218 4.84319 1.02761 5.06279 1.11285 5.26547C1.1981 5.46815 1.32892 5.64845 1.49515 5.79237C1.66138 5.93629 1.85854 6.03997 2.07133 6.09534V9.90534C1.859 9.96125 1.66239 10.0653 1.49669 10.2093C1.331 10.3534 1.20067 10.5337 1.1158 10.7362C1.03092 10.9387 0.993762 11.158 1.00721 11.3771C1.02065 11.5963 1.08434 11.8094 1.19333 12C1.30256 12.1901 1.45432 12.3524 1.63674 12.474C1.81916 12.5957 2.02727 12.6734 2.24477 12.7012C2.46227 12.729 2.68325 12.706 2.89038 12.6341C3.09751 12.5622 3.28518 12.4433 3.43866 12.2867L6.63533 14.1707C6.59712 14.3017 6.57782 14.4375 6.578 14.574C6.57756 14.7611 6.61401 14.9464 6.68527 15.1193C6.75653 15.2923 6.86119 15.4494 6.99327 15.5819C7.12535 15.7144 7.28225 15.8195 7.455 15.8912C7.62775 15.9629 7.81295 15.9999 8 16C8.2276 15.9995 8.45178 15.9445 8.65377 15.8396C8.85576 15.7347 9.0297 15.583 9.16102 15.3971C9.29235 15.2112 9.37725 14.9966 9.40862 14.7711C9.43999 14.5457 9.41692 14.316 9.34133 14.1013L12.5087 12.2347C12.658 12.4034 12.8453 12.5342 13.0552 12.6161C13.265 12.698 13.4914 12.7288 13.7156 12.7059C13.9397 12.683 14.1551 12.607 14.3441 12.4842C14.533 12.3615 14.69 12.1955 14.802 12C14.9143 11.8063 14.9794 11.5888 14.992 11.3652C15.0046 11.1417 14.9643 10.9183 14.8744 10.7131C14.7846 10.508 14.6477 10.327 14.4748 10.1847C14.3019 10.0424 14.0979 9.94277 13.8793 9.894V6.10734C14.0981 6.05849 14.3023 5.95896 14.4755 5.81677C14.6488 5.67457 14.7862 5.49367 14.8767 5.28865C14.9673 5.08363 15.0084 4.86021 14.9968 4.63638C14.9852 4.41255 14.9212 4.19458 14.81 4C14.6993 3.80777 14.5451 3.64411 14.3599 3.5221C14.1746 3.40009 13.9634 3.32312 13.743 3.29733C13.5227 3.27155 13.2994 3.29767 13.091 3.37361C12.8825 3.44955 12.6948 3.5732 12.5427 3.73467L9.356 1.85734L9.35533 1.858ZM8.956 2.48267L9.006 2.43467L12.2113 4.32334C12.1591 4.50685 12.1441 4.69898 12.1674 4.88837C12.1906 5.07776 12.2516 5.26057 12.3467 5.426C12.4398 5.58932 12.5647 5.73241 12.7138 5.84688C12.863 5.96135 13.0335 6.04492 13.2153 6.09267V9.906C13.1979 9.91077 13.1806 9.91589 13.1633 9.92134L8.956 2.48267V2.48267ZM12.2193 11.7213L9.03667 13.5973C8.90404 13.4554 8.74362 13.3422 8.56539 13.2649C8.38717 13.1876 8.19494 13.1478 8.00067 13.148C7.59667 13.148 7.23267 13.316 6.974 13.5867L3.784 11.7067C3.792 11.6807 3.79933 11.6547 3.80533 11.628H12.1933C12.2013 11.6593 12.21 11.6907 12.22 11.7213H12.2193Z" fill="#F3F3F3" fill-opacity="0.8"/>
</svg>
