<svg width="16" height="16" viewBox="0 0 16 16" fill="none" xmlns="http://www.w3.org/2000/svg">
<g clip-path="url(#clip0_219_486)">
<path d="M3.38667 0H4.108V0.712667H4.768V0H5.48933V2.15733H4.768V1.43533H4.108V2.15733H3.38733V0H3.38667ZM6.43733 0.715333H5.80267V0H7.794V0.715333H7.15867V2.15733H6.43733V0.715333ZM8.11 0H8.862L9.32467 0.758L9.78667 0H10.5387V2.15733H9.82066V1.088L9.32467 1.85533H9.312L8.81533 1.08867V2.15733H8.11V0ZM10.8973 0H11.6193V1.44467H12.6327V2.158H10.8973V0Z" fill="#F7F7F7"/>
<path fill-rule="evenodd" clip-rule="evenodd" d="M3.364 14.7147L2 3.14467H14L12.6353 14.7133L7.99333 16L3.364 14.7147ZM6.122 8.38133L5.99267 6.928H11.4227L11.5493 5.50934H4.44267L4.82533 9.80067H9.74333L9.57867 11.6407L7.996 12.0687H7.99467L6.41467 11.642L6.31333 10.5107H4.888L5.08667 12.7387L7.99333 13.5453L10.9047 12.7387L11.2593 8.76267L11.294 8.382H6.122V8.38133Z" fill="#F7F7F7"/>
</g>
<defs>
<clipPath id="clip0_219_486">
<rect width="16" height="16" fill="white"/>
</clipPath>
</defs>
</svg>
