<svg width="16" height="16" viewBox="0 0 16 16" fill="none" xmlns="http://www.w3.org/2000/svg">
<g clip-path="url(#clip0_219_106)">
<path d="M16 7.79266C16 6.73266 14.6727 5.728 12.6373 5.10533C13.1073 3.03133 12.8987 1.38066 11.9787 0.851997C11.7557 0.727144 11.5034 0.664299 11.248 0.669997V1.39666C11.398 1.39666 11.5187 1.42666 11.62 1.482C12.0633 1.73666 12.256 2.70466 12.106 3.95066C12.07 4.25733 12.0113 4.58 11.9393 4.90933C11.2578 4.74509 10.566 4.62638 9.86867 4.554C9.45324 3.98086 9.00001 3.43609 8.512 2.92333C9.57533 1.93533 10.5733 1.394 11.252 1.394V0.666664C10.3547 0.666664 9.18067 1.306 7.99333 2.41466C6.80667 1.31333 5.632 0.679997 4.73533 0.679997V1.40666C5.41067 1.40666 6.412 1.94533 7.47533 2.92666C7.01867 3.40666 6.562 3.95066 6.128 4.554C5.42922 4.62558 4.73623 4.74542 4.054 4.91266C3.9819 4.60052 3.92516 4.28503 3.884 3.96733C3.73067 2.72066 3.92 1.75266 4.36067 1.49533C4.458 1.43666 4.58533 1.41 4.73533 1.41V0.683331C4.462 0.683331 4.21333 0.741997 3.99867 0.865331C3.082 1.394 2.87667 3.04066 3.34933 5.10866C1.32067 5.73533 0 6.736 0 7.79266C0 8.85266 1.32733 9.85733 3.36267 10.4793C2.89267 12.554 3.10133 14.2047 4.02133 14.7327C4.23333 14.8567 4.48133 14.9153 4.75467 14.9153C5.652 14.9153 6.826 14.276 8.01333 13.1673C9.2 14.2693 10.374 14.902 11.2713 14.902C11.5287 14.9074 11.783 14.8444 12.008 14.7193C12.9247 14.1913 13.13 12.5447 12.6573 10.4767C14.6793 9.854 16 8.84933 16 7.79266ZM11.7533 5.61733C11.6267 6.05324 11.4798 6.48303 11.3133 6.90533C11.0408 6.37517 10.7415 5.85917 10.4167 5.35933C10.88 5.428 11.3267 5.51266 11.754 5.61733H11.7533ZM10.26 9.09066C10.0158 9.51697 9.75358 9.93268 9.474 10.3367C8.4955 10.4229 7.51136 10.424 6.53267 10.34C5.9713 9.53812 5.48036 8.68918 5.06533 7.80266C5.47972 6.91407 5.96858 6.06214 6.52667 5.256C7.50493 5.16958 8.48884 5.16824 9.46733 5.252C9.738 5.64 10.0027 6.05466 10.2567 6.492C10.5047 6.91866 10.73 7.352 10.9353 7.78933C10.7277 8.23197 10.5024 8.6661 10.26 9.09066ZM11.3133 8.66666C11.4893 9.10333 11.64 9.54066 11.7633 9.96466C11.3367 10.0693 10.886 10.1573 10.42 10.2253C10.7435 9.72094 11.0416 9.20074 11.3133 8.66666ZM8.00667 12.1467C7.70333 11.8333 7.4 11.4847 7.1 11.1027C7.39333 11.116 7.69333 11.126 7.99667 11.126C8.30333 11.126 8.60667 11.1193 8.90333 11.1027C8.61 11.4847 8.30667 11.8333 8.00667 12.1467ZM5.58 10.2253C5.1305 10.1602 4.68424 10.0743 4.24267 9.968C4.36333 9.54733 4.51333 9.11333 4.68267 8.68C4.81667 8.94 4.95733 9.20133 5.11067 9.46266C5.264 9.72333 5.42 9.978 5.58 10.2253ZM7.99 3.43866C8.29333 3.752 8.59667 4.10066 8.89667 4.48266C8.60333 4.46933 8.30333 4.45933 8 4.45933C7.69333 4.45933 7.39 4.466 7.09333 4.48266C7.38667 4.10066 7.69 3.752 7.99 3.43866ZM5.57667 5.36C5.25325 5.86329 4.9551 6.38237 4.68333 6.91533C4.51214 6.4903 4.36196 6.05711 4.23333 5.61733C4.66 5.516 5.11067 5.428 5.57667 5.36ZM2.62533 9.44266C1.47067 8.95066 0.724 8.30466 0.724 7.79266C0.724 7.28066 1.47067 6.63133 2.62533 6.14266C2.90533 6.022 3.212 5.914 3.52867 5.81333C3.71467 6.452 3.95933 7.11733 4.262 7.79933C3.97624 8.44079 3.73457 9.10099 3.53867 9.77533C3.22897 9.67944 2.92416 9.56842 2.62533 9.44266ZM4.38 14.1027C3.93667 13.8493 3.744 12.88 3.894 11.6347C3.93 11.328 3.98867 11.0047 4.06067 10.6753C4.69933 10.832 5.39733 10.9527 6.13133 11.0313C6.54678 11.6045 7.00001 12.1492 7.488 12.662C6.42467 13.65 5.42667 14.1913 4.748 14.1913C4.61996 14.1927 4.49356 14.1625 4.38 14.1033V14.1027ZM12.116 11.618C12.2693 12.864 12.08 13.8327 11.6393 14.09C11.542 14.1487 11.4147 14.1747 11.2647 14.1747C10.5893 14.1747 9.588 13.6367 8.52467 12.6547C9.01062 12.144 9.4608 11.6005 9.872 11.028C10.5708 10.9564 11.2638 10.8366 11.946 10.6693C12.0213 10.9987 12.0793 11.3147 12.116 11.618ZM13.3713 9.44266C13.0913 9.56333 12.7847 9.67133 12.468 9.772C12.2687 9.09421 12.0236 8.43069 11.7347 7.786C12.0347 7.108 12.2753 6.446 12.458 5.81C12.7687 5.90621 13.0746 6.01722 13.3747 6.14266C14.5293 6.63466 15.276 7.28066 15.276 7.79266C15.2727 8.30466 14.526 8.954 13.3713 9.44266Z" fill="white"/>
<path d="M7.99666 9.28333C8.39201 9.28333 8.77117 9.12628 9.05072 8.84672C9.33028 8.56717 9.48733 8.18801 9.48733 7.79266C9.48733 7.39731 9.33028 7.01815 9.05072 6.7386C8.77117 6.45905 8.39201 6.30199 7.99666 6.30199C7.60131 6.30199 7.22216 6.45905 6.9426 6.7386C6.66305 7.01815 6.506 7.39731 6.506 7.79266C6.506 8.18801 6.66305 8.56717 6.9426 8.84672C7.22216 9.12628 7.60131 9.28333 7.99666 9.28333Z" fill="white"/>
</g>
<defs>
<clipPath id="clip0_219_106">
<rect width="16" height="16" fill="white"/>
</clipPath>
</defs>
</svg>
