<svg width="33" height="32" viewBox="0 0 33 32" fill="none" xmlns="http://www.w3.org/2000/svg">
<path d="M7.49175 20L5.64375 16.736H4.85175V20H3.17175V11.624H6.31575C6.96375 11.624 7.51575 11.74 7.97175 11.972C8.42775 12.196 8.76775 12.504 8.99175 12.896C9.22375 13.28 9.33975 13.712 9.33975 14.192C9.33975 14.744 9.17975 15.244 8.85975 15.692C8.53975 16.132 8.06375 16.436 7.43175 16.604L9.43575 20H7.49175ZM4.85175 15.476H6.25575C6.71175 15.476 7.05175 15.368 7.27575 15.152C7.49975 14.928 7.61175 14.62 7.61175 14.228C7.61175 13.844 7.49975 13.548 7.27575 13.34C7.05175 13.124 6.71175 13.016 6.25575 13.016H4.85175V15.476ZM12.5393 12.98V15.08H15.3593V16.412H12.5393V18.632H15.7193V20H10.8593V11.612H15.7193V12.98H12.5393ZM20.138 20.084C19.554 20.084 19.026 19.984 18.554 19.784C18.09 19.584 17.722 19.296 17.45 18.92C17.178 18.544 17.038 18.1 17.03 17.588H18.83C18.854 17.932 18.974 18.204 19.19 18.404C19.414 18.604 19.718 18.704 20.102 18.704C20.494 18.704 20.802 18.612 21.026 18.428C21.25 18.236 21.362 17.988 21.362 17.684C21.362 17.436 21.286 17.232 21.134 17.072C20.982 16.912 20.79 16.788 20.558 16.7C20.334 16.604 20.022 16.5 19.622 16.388C19.078 16.228 18.634 16.072 18.29 15.92C17.954 15.76 17.662 15.524 17.414 15.212C17.174 14.892 17.054 14.468 17.054 13.94C17.054 13.444 17.178 13.012 17.426 12.644C17.674 12.276 18.022 11.996 18.47 11.804C18.918 11.604 19.43 11.504 20.006 11.504C20.87 11.504 21.57 11.716 22.106 12.14C22.65 12.556 22.95 13.14 23.006 13.892H21.158C21.142 13.604 21.018 13.368 20.786 13.184C20.562 12.992 20.262 12.896 19.886 12.896C19.558 12.896 19.294 12.98 19.094 13.148C18.902 13.316 18.806 13.56 18.806 13.88C18.806 14.104 18.878 14.292 19.022 14.444C19.174 14.588 19.358 14.708 19.574 14.804C19.798 14.892 20.11 14.996 20.51 15.116C21.054 15.276 21.498 15.436 21.842 15.596C22.186 15.756 22.482 15.996 22.73 16.316C22.978 16.636 23.102 17.056 23.102 17.576C23.102 18.024 22.986 18.44 22.754 18.824C22.522 19.208 22.182 19.516 21.734 19.748C21.286 19.972 20.754 20.084 20.138 20.084ZM30.2585 11.624V12.98H28.0265V20H26.3465V12.98H24.1145V11.624H30.2585Z" fill="white"/>
</svg>
