<svg width="16" height="16" viewBox="0 0 16 16" fill="none" xmlns="http://www.w3.org/2000/svg">
<g clip-path="url(#clip0_219_296)">
<path d="M7.546 11.073C7.5385 11.088 7.531 11.1 7.546 11.073V11.073ZM13.774 8.898C13.271 8.898 12.775 9.013 12.324 9.2355C12.1765 8.938 12.024 8.678 11.999 8.483C11.969 8.2555 11.9365 8.1205 11.9715 7.8505C12.0065 7.5805 12.164 7.198 12.1615 7.1705C12.159 7.143 12.1265 7.0055 11.804 7.003C11.4815 7.0005 11.204 7.0655 11.1715 7.1505C11.1144 7.3058 11.0701 7.4655 11.039 7.628C10.9815 7.9205 10.3945 8.9655 10.062 9.5105C9.952 9.298 9.8595 9.1105 9.8395 8.9605C9.8095 8.733 9.777 8.598 9.812 8.328C9.847 8.058 10.0045 7.6755 10.002 7.648C9.9995 7.6205 9.967 7.483 9.645 7.4805C9.323 7.478 9.045 7.543 9.0125 7.628C8.98 7.713 8.945 7.913 8.88 8.1055C8.815 8.298 8.0325 10.038 7.828 10.4905C7.723 10.7205 7.633 10.9055 7.568 11.0305C7.558 11.0505 7.5505 11.063 7.5455 11.073C7.553 11.0605 7.558 11.048 7.558 11.053C7.503 11.1605 7.4705 11.2205 7.4705 11.2205V11.223C7.428 11.303 7.3805 11.3755 7.358 11.3755C7.343 11.3755 7.3105 11.1655 7.3655 10.878C7.483 10.273 7.7605 9.333 7.758 9.3005C7.7555 9.283 7.8105 9.1205 7.5755 9.033C7.348 8.9505 7.2655 9.088 7.2455 9.088C7.2255 9.088 7.2105 9.138 7.2105 9.138C7.2105 9.138 7.463 8.078 6.7255 8.078C6.2655 8.078 5.6255 8.583 5.311 9.0405C5.1135 9.148 4.686 9.3805 4.236 9.628L3.7185 9.913C3.706 9.9005 3.696 9.888 3.6835 9.8755C2.7885 8.9205 1.1365 8.2455 1.2065 6.963C1.2315 6.4955 1.394 5.268 4.3835 3.778C6.8335 2.558 8.792 2.893 9.1295 3.638C9.6145 4.7005 8.082 6.678 5.538 6.963C4.568 7.0705 4.0585 6.6955 3.931 6.5555C3.7985 6.408 3.7785 6.4005 3.7285 6.428C3.646 6.473 3.6985 6.603 3.7285 6.6805C3.8035 6.878 4.116 7.228 4.6485 7.403C5.116 7.5555 6.253 7.6405 7.6275 7.108C9.172 6.513 10.3745 4.8555 10.0215 3.468C9.6625 2.058 7.3245 1.5955 5.114 2.3805C3.7965 2.848 2.372 3.583 1.3475 4.5405C0.130003 5.6805 -0.0644967 6.673 0.0155033 7.088C0.300503 8.5605 2.33 9.5205 3.142 10.2305L3.0295 10.293C2.622 10.4955 1.075 11.3055 0.687503 12.1605C0.250003 13.1305 0.760003 13.8255 1.0945 13.9205C2.1395 14.2105 3.209 13.688 3.784 12.8305C4.359 11.973 4.289 10.853 4.024 10.343C4.0215 10.3355 4.0165 10.3305 4.014 10.323C4.31399 10.1453 4.61652 9.97196 4.9215 9.803C4.8215 10.073 4.749 10.398 4.7115 10.868C4.6665 11.418 4.894 12.1305 5.189 12.4105C5.319 12.533 5.476 12.5355 5.574 12.5355C5.919 12.5355 6.074 12.2505 6.2465 11.9105C6.459 11.4955 6.6465 11.013 6.6465 11.013C6.6465 11.013 6.4115 12.318 7.054 12.318C7.289 12.318 7.524 12.0155 7.629 11.8605V11.863C7.629 11.863 7.634 11.853 7.6465 11.833C7.6715 11.7955 7.684 11.773 7.684 11.773V11.7655C7.779 11.603 7.9865 11.2305 8.299 10.6155C8.704 9.8205 9.091 8.828 9.091 8.828C9.1285 9.046 9.1805 9.2615 9.246 9.473C9.316 9.7105 9.4635 9.9705 9.581 10.223C9.486 10.353 9.4285 10.428 9.4285 10.428C9.4285 10.43 9.4295 10.4315 9.431 10.433C9.356 10.533 9.271 10.6405 9.1835 10.7455C8.864 11.1255 8.4835 11.5605 8.4335 11.6855C8.3735 11.833 8.3885 11.943 8.5035 12.028C8.5885 12.093 8.7385 12.103 8.896 12.0905C9.1835 12.0705 9.386 12.0005 9.4835 11.9555C9.66333 11.8911 9.8333 11.8019 9.9885 11.6905C10.301 11.4605 10.491 11.1305 10.4735 10.6955C10.4635 10.4555 10.386 10.2155 10.291 9.9905C10.3185 9.9505 10.3485 9.908 10.376 9.8655C10.7013 9.38007 10.9945 8.87382 11.2535 8.35C11.291 8.568 11.3425 8.7835 11.4085 8.995C11.4685 9.1975 11.586 9.42 11.6935 9.6375C11.2285 10.015 10.941 10.4525 10.8415 10.74C10.6565 11.2725 10.8015 11.5125 11.074 11.5675C11.1965 11.5925 11.3715 11.535 11.5015 11.48C11.6945 11.4155 11.8765 11.322 12.041 11.2025C12.3535 10.9725 12.656 10.65 12.6355 10.2125C12.628 10.015 12.573 9.8175 12.5005 9.6275C12.893 9.4625 13.403 9.3725 14.053 9.4475C15.445 9.61 15.7175 10.48 15.665 10.8425C15.6125 11.205 15.32 11.4075 15.2225 11.4675C15.125 11.5275 15.095 11.55 15.1025 11.595C15.115 11.66 15.16 11.6575 15.2425 11.6425C15.3575 11.6225 15.9725 11.3475 16 10.675C16.04 9.825 15.2225 8.89 13.775 8.8975L13.774 8.898ZM3.0445 12.5155C2.5845 13.018 1.94 13.208 1.6625 13.048C1.365 12.875 1.4825 12.1355 2.0495 11.6C2.3945 11.275 2.8395 10.975 3.1345 10.79C3.202 10.75 3.2995 10.69 3.4195 10.6175C3.42925 10.6113 3.43926 10.6054 3.4495 10.6C3.472 10.585 3.497 10.5725 3.522 10.5575C3.729 11.3175 3.5295 11.9875 3.0445 12.515V12.5155ZM6.4035 10.2305C6.2435 10.623 5.9065 11.623 5.701 11.5705C5.526 11.5255 5.4185 10.763 5.666 10.013C5.791 9.6355 6.056 9.1855 6.2135 9.0105C6.466 8.728 6.7435 8.638 6.8085 8.7505C6.896 8.898 6.5035 9.9855 6.4035 10.2305ZM9.1785 11.5555C9.111 11.5905 9.0485 11.613 9.0185 11.5955C8.996 11.583 9.046 11.5355 9.046 11.5355C9.046 11.5355 9.3935 11.163 9.531 10.993C9.611 10.893 9.7035 10.7755 9.8035 10.6455C9.8035 10.658 9.806 10.6705 9.806 10.6855C9.803 11.133 9.373 11.4355 9.178 11.5555H9.1785ZM11.3185 11.068C11.2685 11.033 11.276 10.9155 11.4435 10.5505C11.5085 10.408 11.6585 10.168 11.9185 9.938C11.948 10.025 11.964 10.116 11.966 10.208C11.9635 10.7705 11.561 10.9805 11.3185 11.068V11.068Z" fill="#F7F7F7"/>
</g>
<defs>
<clipPath id="clip0_219_296">
<rect width="16" height="16" fill="white"/>
</clipPath>
</defs>
</svg>
