<svg width="16" height="16" viewBox="0 0 16 16" fill="none" xmlns="http://www.w3.org/2000/svg">
<path d="M12.8267 2H3.17333C2.86215 2 2.5637 2.12362 2.34366 2.34366C2.12362 2.5637 2 2.86215 2 3.17333V12.8267C2 13.1379 2.12362 13.4363 2.34366 13.6563C2.5637 13.8764 2.86215 14 3.17333 14H12.8267C12.9808 14 13.1333 13.9697 13.2757 13.9107C13.418 13.8517 13.5474 13.7653 13.6563 13.6563C13.7653 13.5474 13.8517 13.418 13.9107 13.2757C13.9697 13.1333 14 12.9808 14 12.8267V3.17333C14 3.01925 13.9697 2.86667 13.9107 2.72432C13.8517 2.58196 13.7653 2.45262 13.6563 2.34366C13.5474 2.23471 13.418 2.14828 13.2757 2.08931C13.1333 2.03035 12.9808 2 12.8267 2ZM8.96 8.66667H7.46V12.96H6.26667V8.66667H4.76667V7.69333H8.96V8.66667ZM12.8267 12.1867C12.7302 12.3919 12.5746 12.5636 12.38 12.68C12.1752 12.806 11.9494 12.8941 11.7133 12.94C11.4502 12.9943 11.1821 13.0212 10.9133 13.02C10.6384 13.0198 10.364 12.9952 10.0933 12.9467C9.8633 12.8996 9.63956 12.8257 9.42667 12.7267V11.5867L9.38667 11.5467H9.42667V11.5933C9.62719 11.7498 9.85254 11.8715 10.0933 11.9533C10.3338 12.0449 10.5894 12.0901 10.8467 12.0867C10.9811 12.089 11.1154 12.0756 11.2467 12.0467C11.3453 12.0236 11.4398 11.9854 11.5267 11.9333C11.5947 11.8919 11.6519 11.8347 11.6933 11.7667C11.7344 11.6892 11.7524 11.6016 11.7453 11.5142C11.7383 11.4268 11.7063 11.3432 11.6533 11.2733C11.5907 11.1855 11.5114 11.1107 11.42 11.0533C11.309 10.9753 11.1907 10.9083 11.0667 10.8533L10.62 10.6667C10.2664 10.521 9.95313 10.2924 9.70667 10C9.5004 9.75136 9.39143 9.43628 9.4 9.11333C9.39223 8.86799 9.44731 8.62474 9.56 8.40667C9.66754 8.21659 9.81826 8.05445 10 7.93333C10.2025 7.79862 10.4287 7.7036 10.6667 7.65333C10.9268 7.59346 11.1931 7.56437 11.46 7.56667C11.7031 7.56327 11.946 7.57888 12.1867 7.61333C12.3869 7.64463 12.5834 7.696 12.7733 7.76667V8.86667C12.6856 8.80412 12.5918 8.75051 12.4933 8.70667C12.3873 8.66104 12.2782 8.62316 12.1667 8.59333C12.0598 8.56206 11.9506 8.53976 11.84 8.52667C11.738 8.51705 11.6353 8.51705 11.5333 8.52667C11.4077 8.52459 11.2823 8.53802 11.16 8.56667C11.0597 8.58771 10.963 8.62366 10.8733 8.67333C10.8033 8.71458 10.744 8.77167 10.7 8.84C10.6601 8.9064 10.6393 8.98254 10.64 9.06C10.6384 9.1427 10.6616 9.22398 10.7067 9.29333C10.7614 9.36905 10.8291 9.4345 10.9067 9.48667C11.0007 9.5615 11.1037 9.62421 11.2133 9.67333L11.6333 9.86C11.8265 9.93983 12.0136 10.0334 12.1933 10.14C12.3514 10.2265 12.4953 10.3367 12.62 10.4667C12.7422 10.5851 12.8377 10.7283 12.9 10.8867C12.9639 11.0687 12.9955 11.2604 12.9933 11.4533C12.9886 11.7023 12.9318 11.9476 12.8267 12.1733V12.1867Z" fill="white"/>
</svg>
