<svg width="16" height="16" viewBox="0 0 16 16" fill="none" xmlns="http://www.w3.org/2000/svg">
<path d="M13.8084 11.7246L8.23387 14.8782V12.4225L11.7072 10.5114L13.8084 11.7246ZM14.1902 11.3792V4.7852L12.1512 5.96369V10.2026L14.1902 11.3792ZM2.16969 11.7246L7.7442 14.8782V12.4225L4.26904 10.5114L2.16969 11.7246ZM1.78783 11.3792V4.7852L3.82688 5.96369V10.2026L1.78783 11.3792ZM2.02718 4.35766L7.7442 1.12367V3.49709L4.08085 5.51239L4.05162 5.52883L2.02718 4.35766ZM13.9509 4.35766L8.23387 1.12367V3.49709L11.8972 5.51056L11.9265 5.52701L13.9509 4.35766Z" fill="#F7F7F7"/>
<path d="M7.74422 11.8634L4.31656 9.97785V6.24506L7.74422 8.22382V11.8634ZM8.23388 11.8634L11.6615 9.97967V6.24506L8.23388 8.22382V11.8634ZM4.5486 5.81386L7.98905 3.92281L11.4295 5.81386L7.98905 7.79993L4.5486 5.81386Z" fill="#F7F7F7"/>
</svg>
